<?xml version="1.0" encoding="UTF-8"?>
<svg width="22px" height="16px" viewBox="0 0 22 16" version="1.1" xmlns="http://www.w3.org/2000/svg" xmlns:xlink="http://www.w3.org/1999/xlink">
    <title>rime</title>
    <g id="Page-1" stroke="none" stroke-width="1" fill="none" fill-rule="evenodd" stroke-linecap="round" stroke-linejoin="round">
        <g id="rime" fill="#000000" fill-rule="nonzero">
            <path d="M19.3819749,0 C20.2651358,0 20.8582314,0.170283981 21.3462606,0.667187491 C21.8342913,1.164091 22,1.74261275 22,2.66718745 L22,13.3343745 C22,14.2589488 21.8342913,14.837472 21.3462606,15.3343744 C20.8582314,15.8312784 20.2651358,16 19.3819749,16 L2.61955912,16 C1.73639836,16 1.05961088,15.7576728 0.655273433,15.3343744 C0.250936082,14.9110768 0,14.2589488 0,13.3343745 L0,2.66718745 C0,1.74261275 0.167243243,1.164091 0.655273433,0.667187491 C1.14330359,0.170283981 1.73639836,0 2.61955912,0 Z M11.7495121,3.49951174 L10.2495121,3.49951174 L10.2495121,8.25000009 L9.0000001,8.25000009 C8.51600035,8.25000009 7.99951177,7.73351109 7.99951177,7.24951178 L7.99951177,4.50000005 L6.49951177,4.50000005 L6.49951177,7.75048809 C6.49951177,8.7034876 7.54748934,9.75000011 8.5004881,9.75000011 L10.2495121,9.75000011 L10.2495121,10.9995117 L6.75000008,10.9995117 L6.75000008,12.4995117 L15.2504882,12.4995117 L15.2504882,10.9995117 L11.7495121,10.9995117 L11.7495121,9.75000011 L13.5000002,9.75000011 C14.4529989,9.75000011 15.4995118,8.7034876 15.4995118,7.75048809 L15.4995118,4.50000005 L13.9995118,4.50000005 L13.9995118,7.24951178 C13.9995118,7.73351109 13.4844879,8.25000009 13.0004881,8.25000009 L11.7495121,8.25000009 L11.7495121,3.49951174 Z" id="path"></path>
        </g>
    </g>
</svg>